#!OML:ASF F:\VICON\USERDATA\INSTALL\rory3\rory3.ASF
:FULLY-SPECIFIED
:DEGREES
3440
root 1.62234 17.4411 -4.1142 375.746 25.5646 -357.781
lowerback 27.6442 1.10687 -0.173688
upperback 11.1167 1.56267 -1.16669
thorax -2.83353 0.906442 -1.63175
lowerneck -5.30862 3.69066 -8.11248
upperneck 23.286 5.8304 2.35455
head 7.74719 2.33795 2.60836
rclavicle 6.95746e-014 -3.27995e-014
rhumerus -20.5492 0.814601 -67.4675
rradius 45.7149
rwrist 13.3045
rhand -39.3432 5.91594
rfingers 7.12502
rthumb -12.3346 -23.7002
lclavicle 6.95746e-014 -3.27995e-014
lhumerus -20.5175 1.56407 67.2328
lradius 33.1066
lwrist -1.97785
lhand -30.3465 25.1249
lfingers 7.12502
lthumb -3.65205 55.0733
rfemur -37.7623 10.9554 -6.82953
rtibia 37.2822
rfoot -16.8492 -13.8695
rtoes -13.6321
lfemur -40.2848 7.12904 -6.78401
ltibia 39.5853
lfoot -10.0478 1.31964
ltoes -11.9652
3441
root 1.62216 17.4109 -4.17018 376.233 25.6903 -357.932
lowerback 27.4052 1.26197 -0.851977
upperback 11.5962 1.63831 -0.756504
thorax -2.21523 0.919963 -0.802859
lowerneck -5.51768 3.52087 -8.31471
upperneck 22.8792 5.68644 2.06082
head 7.66541 2.2366 2.53012
rclavicle -1.74931e-014 -1.88845e-014
rhumerus -19.7812 0.746659 -66.9853
rradius 45.7089
rwrist 13.1916
rhand -39.2409 5.87119
rfingers 7.12502
rthumb -12.2359 -23.7509
lclavicle -1.74931e-014 -1.88845e-014
lhumerus -19.4711 2.32247 67.1442
lradius 33.8998
lwrist -1.66083
lhand -30.2001 24.6819
lfingers 7.12502
lthumb -3.51065 54.6328
rfemur -38.6407 10.3932 -6.81358
rtibia 37.6776
rfoot -16.8382 -13.9807
rtoes -13.0168
lfemur -41.4348 7.28654 -6.76555
ltibia 40.0845
lfoot -10.0592 1.13018
ltoes -11.7246
3442
root 1.61954 17.3818 -4.2288 376.692 25.7701 -358.077
lowerback 27.9609 1.33482 -1.16799
upperback 11.5536 1.6479 -0.693722
thorax -2.52923 0.912942 -0.571397
lowerneck -5.4262 3.44444 -8.17766
upperneck 22.7781 5.55882 2.0147
head 7.62705 2.18568 2.47832
rclavicle 8.94531e-015 -9.34288e-015
rhumerus -19.8046 0.634687 -66.9855
rradius 45.7532
rwrist 13.0704
rhand -39.33 6.0303
rfingers 7.12502
rthumb -12.3219 -23.5866
lclavicle 8.94531e-015 -9.34288e-015
lhumerus -19.0219 2.39818 66.573
lradius 34.8387
lwrist -1.08121
lhand -29.7766 23.9769
lfingers 7.12502
lthumb -3.10174 53.9341
rfemur -39.5264 9.76936 -6.74766
rtibia 38.0736
rfoot -16.7575 -14.1751
rtoes -13.0529
lfemur -42.5576 7.41401 -6.73382
ltibia 40.6284
lfoot -10.0523 1.01259
ltoes -11.9598
3443
root 1.61523 17.3528 -4.28897 377.06 25.9077 -358.452
lowerback 28.4314 1.43708 -1.22901
upperback 11.5143 1.75923 -0.561879
thorax -2.79572 0.961319 -0.43779
lowerneck -5.34762 3.29312 -8.04791
upperneck 22.7182 5.33438 1.97495
head 7.60936 2.08867 2.42487
rclavicle 1.88845e-014 -6.30147e-014
rhumerus -19.9311 0.407604 -66.8841
rradius 45.7862
rwrist 13.1374
rhand -39.561 6.04543
rfingers 7.12502
rthumb -12.5446 -23.558
lclavicle 1.88845e-014 -6.30147e-014
lhumerus -18.5387 2.21353 66.1479
lradius 35.9316
lwrist -0.159298
lhand -30.2181 23.6905
lfingers 7.12502
lthumb -3.52812 53.6411
rfemur -40.4565 9.30044 -6.53425
rtibia 38.4589
rfoot -16.8188 -14.2834
rtoes -11.7668
lfemur -43.7315 7.61995 -6.48295
ltibia 41.2281
lfoot -10.0623 0.838076
ltoes -12.0727
3444
root 1.6119 17.3211 -4.35102 377.386 26.1624 -358.952
lowerback 28.6841 1.57628 -1.27099
upperback 11.5745 1.94226 -0.206378
thorax -2.85878 1.03931 -0.0848394
lowerneck -5.17805 3.08309 -8.14992
upperneck 22.4163 5.05445 1.88311
head 7.49542 1.9505 2.38077
rclavicle -5.4467e-014 -5.08889e-014
rhumerus -19.8694 0.305311 -66.4297
rradius 45.7547
rwrist 13.0778
rhand -39.7479 6.04984
rfingers 7.12502
rthumb -12.7247 -23.5424
lclavicle -5.4467e-014 -5.08889e-014
lhumerus -18.0412 2.05057 66.0444
lradius 37.1317
lwrist 0.935443
lhand -31.0936 22.9642
lfingers 7.12502
lthumb -4.37353 52.899
rfemur -41.3505 8.76966 -6.19118
rtibia 38.8058
rfoot -16.7723 -14.3515
rtoes -10.2988
lfemur -44.9814 7.85653 -6.1355
ltibia 41.8961
lfoot -10.0716 0.60335
ltoes -12.2338
3445
root 1.60755 17.2819 -4.41156 377.636 26.4106 -359.39
lowerback 29.089 1.55056 -0.987905
upperback 11.6395 1.97893 -0.225409
thorax -2.96225 1.06681 -0.288184
lowerneck -4.99134 2.96576 -7.83652
upperneck 22.0303 4.8239 1.87244
head 7.35213 1.87605 2.29597
rclavicle -1.2921e-014 -6.0033e-014
rhumerus -19.7734 0.0508549 -66.4891
rradius 45.709
rwrist 12.8856
rhand -39.7997 6.34755
rfingers 7.12502
rthumb -12.7747 -23.2416
lclavicle -1.2921e-014 -6.0033e-014
lhumerus -17.4585 1.67032 65.346
lradius 38.2672
lwrist 1.97311
lhand -31.4976 22.5597
lfingers 7.12502
lthumb -4.7636 52.4862
rfemur -42.0859 8.09575 -5.76158
rtibia 39.1333
rfoot -16.4315 -14.5151
rtoes -11.1515
lfemur -46.1409 8.0375 -5.81556
ltibia 42.6023
lfoot -10.1065 0.362251
ltoes -12.3606
3446
root 1.60285 17.2479 -4.46248 377.705 26.5525 -359.793
lowerback 29.9828 1.27819 -0.499203
upperback 11.5775 1.73321 -0.600475
thorax -3.41159 0.970902 -0.929471
lowerneck -4.98598 3.07054 -7.60178
upperneck 21.8889 4.86519 2.16903
head 7.29502 1.93987 2.35223
rclavicle 3.69739e-014 -3.08116e-015
rhumerus -19.7248 0.0790656 -67.1521
rradius 45.6934
rwrist 12.8227
rhand -39.622 6.33626
rfingers 7.12502
rthumb -12.6034 -23.2635
lclavicle 3.69739e-014 -3.08116e-015
lhumerus -17.0949 1.67728 64.0285
lradius 39.2009
lwrist 2.66093
lhand -31.6535 23.8402
lfingers 7.12502
lthumb -4.91412 53.7633
rfemur -42.6264 7.56454 -5.31682
rtibia 39.4475
rfoot -16.0316 -14.7065
rtoes -11.9208
lfemur -47.0166 8.29583 -5.56006
ltibia 43.3372
lfoot -10.1794 0.136677
ltoes -13.2099
3447
root 1.59752 17.2159 -4.51071 377.764 26.6528 -360.156
lowerback 29.9067 1.62517 -1.0611
upperback 12.1128 2.07545 -0.00777232
thorax -2.80832 1.11011 -0.0489034
lowerneck -5.10512 2.8465 -7.98054
upperneck 21.4003 4.6328 2.00746
head 7.16735 1.79983 2.33829
rclavicle -3.39922e-014 7.35503e-015
rhumerus -19.0258 -0.0105768 -66.3317
rradius 45.7028
rwrist 12.5307
rhand -39.5539 6.40644
rfingers 7.12502
rthumb -12.5377 -23.1974
lclavicle -3.39922e-014 7.35503e-015
lhumerus -15.9786 2.4689 64.3005
lradius 40.0003
lwrist 3.15695
lhand -31.6376 25.8883
lfingers 7.12502
lthumb -4.89882 55.8116
rfemur -43.1789 7.08272 -4.94789
rtibia 39.7663
rfoot -15.6512 -14.8048
rtoes -11.4879
lfemur -47.8537 8.57946 -5.35509
ltibia 44.0856
lfoot -10.2343 -0.118633
ltoes -13.6031
3448
root 1.59411 17.1761 -4.56265 377.942 26.6585 -360.411
lowerback 30.523 1.63662 -0.986848
upperback 12.128 2.09452 -0.128977
thorax -3.05971 1.12542 -0.24731
lowerneck -5.08202 2.77246 -7.81486
upperneck 21.218 4.47526 2.14008
head 7.10962 1.75258 2.33859
rclavicle -1.92821e-014 -3.72721e-014
rhumerus -18.9982 -0.269851 -66.4919
rradius 45.8099
rwrist 12.3685
rhand -39.7096 6.55346
rfingers 7.12502
rthumb -12.6878 -23.0411
lclavicle -1.92821e-014 -3.72721e-014
lhumerus -15.5456 2.29535 63.5909
lradius 41.2392
lwrist 4.41749
lhand -30.9584 26.576
lfingers 7.12502
lthumb -4.24299 56.5135
rfemur -43.8882 6.46551 -4.70624
rtibia 40.1149
rfoot -15.1829 -14.6723
rtoes -11.1336
lfemur -48.7835 8.83569 -5.24168
ltibia 44.8311
lfoot -10.3027 -0.318627
ltoes -13.3607
3449
root 1.59088 17.1311 -4.61509 378.142 26.6065 -360.547
lowerback 31.1867 1.6234 -1.02628
upperback 12.1171 2.04559 -0.323732
thorax -3.35971 1.10626 -0.442701
lowerneck -5.06409 2.74352 -7.61195
upperneck 21.1032 4.38923 2.2117
head 7.07402 1.73452 2.31934
rclavicle 3.37934e-015 1.82882e-014
rhumerus -18.957 -0.430813 -66.7325
rradius 45.971
rwrist 12.089
rhand -39.5628 6.57407
rfingers 7.12502
rthumb -12.5463 -23.0292
lclavicle 3.37934e-015 1.82882e-014
lhumerus -15.2295 1.98363 62.786
lradius 42.4498
lwrist 5.39568
lhand -30.3543 26.4845
lfingers 7.12502
lthumb -3.65959 56.4328
rfemur -44.6107 5.78542 -4.55842
rtibia 40.5146
rfoot -14.5399 -14.4939
rtoes -11.1415
lfemur -49.6711 9.06729 -5.25092
ltibia 45.5777
lfoot -10.3907 -0.43371
ltoes -13.742
3450
root 1.58314 17.0834 -4.66416 378.388 26.7409 -360.637
lowerback 31.8118 1.67912 -1.22611
upperback 12.0402 2.04991 -0.306996
thorax -3.72929 1.10218 -0.329846
lowerneck -5.01487 2.70409 -7.54076
upperneck 21.1926 4.31432 2.26831
head 7.09755 1.70658 2.32187
rclavicle 3.3197e-014 3.06128e-014
rhumerus -19.0597 -0.415984 -66.6514
rradius 46.1897
rwrist 11.5987
rhand -39.4272 6.66497
rfingers 7.12502
rthumb -12.4155 -22.9463
lclavicle 3.3197e-014 3.06128e-014
lhumerus -14.9647 1.77093 62.2266
lradius 43.6221
lwrist 6.20305
lhand -30.6075 26.7174
lfingers 7.12502
lthumb -3.90411 56.6614
rfemur -45.2845 5.08267 -4.43158
rtibia 40.9746
rfoot -14.0284 -14.4554
rtoes -11.5355
lfemur -50.6468 9.14404 -5.23179
ltibia 46.3161
lfoot -10.3855 -0.603874
ltoes -13.6299
3451
root 1.57424 17.0378 -4.70633 378.658 26.916 -360.817
lowerback 31.8273 1.92378 -1.78888
upperback 12.266 2.23442 0.120788
thorax -3.51352 1.16473 0.411248
lowerneck -5.15933 2.59829 -7.83693
upperneck 21.1161 4.23611 2.17012
head 7.10121 1.64072 2.33535
rclavicle 1.80894e-014 -2.84262e-014
rhumerus -18.6414 -0.304222 -65.9917
rradius 46.3604
rwrist 11.0131
rhand -39.6391 6.61618
rfingers 7.12502
rthumb -12.6199 -22.9826
lclavicle 1.80894e-014 -2.84262e-014
lhumerus -14.3216 2.10873 62.238
lradius 44.6386
lwrist 6.81652
lhand -30.9277 27.0283
lfingers 7.12502
lthumb -4.21333 56.9663
rfemur -46.0282 4.39694 -4.23605
rtibia 41.4705
rfoot -13.8252 -14.2379
rtoes -12.1821
lfemur -51.6644 9.21493 -5.08714
ltibia 47.0391
lfoot -10.3514 -0.825301
ltoes -12.778
3452
root 1.5639 16.9938 -4.74456 378.781 27.0154 -361.028
lowerback 31.9586 2.06919 -2.34233
upperback 12.5436 2.2892 0.415841
thorax -3.28183 1.1661 1.04125
lowerneck -5.38545 2.53961 -8.11073
upperneck 20.8929 4.21076 2.11594
head 7.06756 1.60771 2.36098
rclavicle 2.8625e-014 -1.36167e-014
rhumerus -17.9811 -0.105167 -65.5814
rradius 46.4944
rwrist 10.4766
rhand -39.7278 6.69159
rfingers 7.12502
rthumb -12.7054 -22.9019
lclavicle 2.8625e-014 -1.36167e-014
lhumerus -13.7358 2.55936 61.99
lradius 45.5377
lwrist 7.24515
lhand -31.2339 26.3933
lfingers 7.12502
lthumb -4.50904 56.3253
rfemur -46.6921 3.69746 -3.93013
rtibia 42.0185
rfoot -13.6264 -13.7073
rtoes -13.1292
lfemur -52.533 9.35763 -4.92123
ltibia 47.8831
lfoot -10.4198 -1.15281
ltoes -11.9558
3453
root 1.55114 16.9497 -4.78175 378.763 27.2031 -361.155
lowerback 32.4256 2.10377 -2.54656
upperback 12.7334 2.27496 0.428084
thorax -3.27156 1.15444 1.16952
lowerneck -5.35083 2.46557 -7.98173
upperneck 20.6355 4.07225 2.16042
head 6.9852 1.56099 2.33834
rclavicle 1.46107e-014 -4.02539e-015
rhumerus -17.7657 -0.336594 -65.5721
rradius 46.81
rwrist 10.1345
rhand -39.6297 6.88199
rfingers 7.12502
rthumb -12.6108 -22.7174
lclavicle 1.46107e-014 -4.02539e-015
lhumerus -13.1195 2.43998 61.3447
lradius 46.485
lwrist 7.8345
lhand -31.5777 23.9366
lfingers 7.12502
lthumb -4.84101 53.8613
rfemur -47.1131 3.03005 -3.63331
rtibia 42.5841
rfoot -13.474 -13.12
rtoes -13.7934
lfemur -53.2331 9.41197 -4.81688
ltibia 48.6512
lfoot -10.4466 -1.48425
ltoes -11.5494
